<svg id="Capa_1" enable-background="new 0 0 511.999 511.999" height="512" viewBox="0 0 511.999 511.999" width="512" xmlns="http://www.w3.org/2000/svg"><g><g><path d="m63.98 143.79 57.197-91.781 50.546 18.622 46.555-63.134 53.206 32.541 42.565-18.623 50.546 50.546 43.895-17.292 38.575 89.121-191.543 19.544z" fill="#655e66"/><path d="m121.18 52.01 15.57 91.78h-72.77z" fill="#535057"/><path d="m408.488 54.67-16.79 89.12h-231.449l33.25-49.21-21.78-23.95 46.56-63.129 18.11 82.219 35.1-49.68 42.559-18.619-26.109 81.139 62.079 9.51 14.58-40.11z" fill="#535057"/><path d="m442.528 319.465c-1.21 4.74-3.43 9.18-6.48 13.02-10.42 13.1-38.12 44.32-81.379 67.39h-198.289c-43.26-23.07-70.96-54.29-81.379-67.39-3.06-3.84-5.27-8.28-6.49-13.02-12.05-47.1-14.11-89.329-14-113.969.06-14.25.85-22.62.85-22.62l168.709-16.47 31.45-3.07 31.45 3.07 168.719 16.47s.78 8.36.84 22.62c.119 24.63-1.951 66.87-14.001 113.969z" fill="#e27d47"/><path d="m456.528 205.496h-402.017c.06-14.25.85-22.62.85-22.62l168.709-16.47h62.9l168.719 16.47c-.001 0 .779 8.36.839 22.62z" fill="#dd6938"/><path d="m188.353 399.87h-31.98c-43.26-23.07-70.959-54.29-81.379-67.39-3.05-3.84-5.27-8.28-6.48-13.02-19.03-74.349-13.16-136.589-13.16-136.589l29.075-19.54 35.495 19.54s-3.97 62.24 8.91 136.589c.83 4.74 2.33 9.18 4.39 13.02 7.06 13.1 25.83 44.32 55.129 67.39z" fill="#dd6938"/><g fill="#655e66"><circle cx="156.283" cy="422.702" r="42.399"/><circle cx="354.762" cy="422.702" r="42.399"/></g><circle cx="156.283" cy="422.702" fill="#c3bec6" r="17.213"/><circle cx="354.762" cy="422.702" fill="#c3bec6" r="17.213"/><path d="m468.655 143.79h-426.265c-8.381 0-15.175 6.794-15.175 15.175v8.739c0 8.381 6.794 15.175 15.175 15.175h426.266c8.381 0 15.175-6.794 15.175-15.175v-8.739c-.001-8.381-6.795-15.175-15.176-15.175z" fill="#f9f6f9"/><path d="m89.274 182.874h-46.89c-8.38 0-15.17-6.79-15.17-15.17v-8.74c0-8.38 6.79-15.18 15.17-15.18h46.89c-8.38 0-15.17 6.8-15.17 15.18v8.74c.001 8.38 6.791 15.17 15.17 15.17z" fill="#e2dfe2"/><path d="m484.801 465.101h-457.603c-10.878 0-19.696 8.818-19.696 19.696 0 10.878 8.818 19.696 19.696 19.696h457.604c10.878 0 19.696-8.818 19.696-19.696 0-10.878-8.819-19.696-19.697-19.696z" fill="#c3bec6"/><path d="m504.501 484.794c0 10.88-8.82 19.7-19.7 19.7h-457.597c-5.44 0-10.36-2.21-13.93-5.77s-5.77-8.49-5.77-13.93c0-3.63.99-7.05 2.72-9.97.84 1.44 1.87 2.77 3.05 3.94 3.57 3.56 8.49 5.77 13.93 5.77h457.597c7.23 0 13.56-3.9 16.98-9.71 1.73 2.92 2.72 6.34 2.72 9.97z" fill="#b4acb7"/></g><g><path d="m156.282 397.994c-13.627 0-24.713 11.086-24.713 24.713s11.086 24.713 24.713 24.713 24.713-11.086 24.713-24.713-11.086-24.713-24.713-24.713zm0 34.426c-5.355 0-9.713-4.357-9.713-9.713s4.357-9.713 9.713-9.713 9.713 4.357 9.713 9.713-4.357 9.713-9.713 9.713z"/><path d="m354.762 447.42c13.627 0 24.713-11.086 24.713-24.713s-11.086-24.713-24.713-24.713-24.713 11.086-24.713 24.713 11.086 24.713 24.713 24.713zm0-34.426c5.356 0 9.713 4.357 9.713 9.713s-4.357 9.713-9.713 9.713-9.713-4.357-9.713-9.713 4.357-9.713 9.713-9.713z"/><path d="m484.801 457.606h-94.421c8.825-9.005 14.28-21.324 14.28-34.899 0-14.043-5.84-26.741-15.208-35.817 26.367-19.15 43.944-39.014 52.471-49.735 3.695-4.652 6.418-10.126 7.873-15.823 1.808-7.055 3.469-14.303 4.936-21.543.823-4.06-1.802-8.018-5.861-8.84-4.063-.822-8.017 1.802-8.84 5.861-1.417 6.991-3.02 13.988-4.767 20.804-.937 3.67-2.695 7.201-5.083 10.207-8.478 10.661-26.481 30.93-53.769 49.933-6.552-3.168-13.897-4.946-21.649-4.946-16.112 0-30.457 7.683-39.586 19.571h-119.308c-9.129-11.888-23.474-19.571-39.586-19.571-7.752 0-15.097 1.778-21.649 4.946-27.289-19.01-45.287-39.276-53.767-49.939-2.414-3.029-4.127-6.466-5.089-10.205-14.882-58.166-14.217-109.31-13.375-127.227h386.249c.598 12.542 1.119 41.358-3.734 77.334-.554 4.105 2.325 7.882 6.43 8.435.34.046.678.068 1.012.068 3.697 0 6.916-2.734 7.423-6.498 4.959-36.759 4.538-65.827 3.903-79.34h4.969c12.503 0 22.675-10.172 22.675-22.675v-8.74c0-12.503-10.172-22.675-22.675-22.675h-16.666l-36.615-84.603c-1.606-3.712-5.869-5.483-9.632-3.999l-39.325 15.5-47.063-47.072c-2.182-2.183-5.479-2.806-8.309-1.569l-38.987 17.053-49.863-30.499c-3.319-2.031-7.642-1.185-9.95 1.947l-43.216 58.605-45.253-16.681c-3.338-1.23-7.079.053-8.96 3.071l-20.71 33.24c-2.19 3.516-1.116 8.141 2.4 10.332 3.515 2.191 8.141 1.116 10.332-2.399l10.252-16.455 10.779 63.533h-50.378l13.475-21.617c2.191-3.515 1.118-8.141-2.397-10.332-3.515-2.192-8.141-1.117-10.332 2.397l-18.42 29.551h-17.427c-12.503 0-22.675 10.172-22.675 22.675v8.74c0 12.503 10.172 22.675 22.675 22.675h4.968c-.931 19.472-1.435 71.05 13.89 130.956 1.495 5.808 4.148 11.133 7.883 15.819 8.522 10.715 26.095 30.574 52.462 49.731-9.368 9.076-15.208 21.774-15.208 35.817 0 13.574 5.455 25.893 14.28 34.899h-93.468c-14.996 0-27.196 12.2-27.196 27.197s12.2 27.197 27.196 27.197h457.604c14.996 0 27.196-12.2 27.196-27.197s-12.199-27.198-27.196-27.198zm-244.742-386.081-10.669-48.437 31.345 19.172zm-12.786 11.68-30.804 3.49-15.059-16.556 33.099-44.885zm-29.492 18.437 39.451-4.469c2.111-.239 4.022-1.363 5.257-3.091.006-.009.011-.018.017-.027.002-.002.005-.004.006-.006l33.895-47.976 25.407-11.113-21.012 65.304c-.673 2.091-.395 4.372.76 6.241s3.072 3.137 5.243 3.47l53.04 8.129-6.612 18.192h-158.866zm147.29 2.086-47.294-7.248 19.651-61.073 38.485 38.492zm25.418-26.02 28.117-11.08-13.13 69.667h-36.282zm40.84 2.401 24.316 56.185h-34.905zm-280.592-16.582 36.678 13.52 16.571 18.218-27.723 41.03h-13.181zm-96.022 104.182v-8.74c0-4.232 3.443-7.675 7.675-7.675h426.266c4.232 0 7.675 3.443 7.675 7.675v8.74c0 4.232-3.443 7.675-7.675 7.675h-426.266c-4.232-.001-7.675-3.443-7.675-7.675zm320.047 220.099c19.243 0 34.898 15.656 34.898 34.899s-15.655 34.899-34.898 34.899-34.899-15.656-34.899-34.899 15.656-34.899 34.899-34.899zm-47.48 19.571c-1.564 4.833-2.419 9.981-2.419 15.328 0 13.574 5.455 25.893 14.28 34.899h-127.242c8.825-9.005 14.28-21.324 14.28-34.899 0-5.347-.855-10.495-2.419-15.328zm-185.898 15.328c0-19.243 15.655-34.899 34.898-34.899s34.899 15.656 34.899 34.899-15.656 34.899-34.899 34.899-34.898-15.656-34.898-34.899zm363.417 74.292h-457.604c-6.725 0-12.196-5.471-12.196-12.197s5.471-12.197 12.196-12.197h457.604c6.725 0 12.196 5.471 12.196 12.197s-5.47 12.197-12.196 12.197z"/></g></g></svg>