<?xml version="1.0" encoding="UTF-8"?>
<svg xmlns="http://www.w3.org/2000/svg" xmlns:xlink="http://www.w3.org/1999/xlink" width="512" height="512" viewBox="0 0 58 58" version="1.1"><!-- Generator: Sketch 51.3 (57544) - http://www.bohemiancoding.com/sketch --><title>018 - Mining</title><desc>Created with Sketch.</desc><defs/><g id="Page-1" stroke="none" stroke-width="1" fill="none" fill-rule="evenodd"><g id="018---Mining" fill-rule="nonzero"><path d="M58,14.77 L58,19 L53.04,24.54 C51.79,25.43 50.15,26.53 48.8,25.8 L40,18 L55.37,12.88 C55.9783582,12.6780822 56.6466371,12.7799905 57.1671616,13.1540556 C57.687686,13.5281207 57.9973791,14.1290136 58,14.77 Z" id="Shape" fill="#35495E"/><path d="M35.12,27.75 L35,28 L24.05,31.65 C23.3570721,31.8792363 22.7127946,32.2352844 22.15,32.7 L12,41 L26.833,54 C27.853,54.66 35.517,53.223 36.667,52.833 L49.667,46.167 C50.867,45.767 53.267,43.867 53.667,42.667 L54,38 C54.86,35.41 52.732,35 50,35 L47.239,32.714 M40.75,33.75 L37.26,30.26 M43.14,35.7 L43.13,35.7" id="Shape" fill="#35495E"/><path d="M58,51 L58,58 L38,58 L41.4,53.19 C41.7915653,52.4184767 42.4184767,51.7915653 43.19,51.4 L49.42,48.29 C50.96,47.52 54.82,43.82 56.04,45.04 L58,51 Z" id="Shape" fill="#35495E"/><path d="M30,58 L0,58 L0,57.43 C0.000430617929,55.3613963 1.27737989,53.507632 3.21,52.77 L13,49 L30,58 Z" id="Shape" fill="#35495E"/><path d="M58,19 L58,51 L56.04,49.04 C54.8222577,47.8210644 52.9608032,47.5188802 51.42,48.29 L45.19,51.4 C44.4184767,51.7915653 43.7915653,52.4184767 43.4,53.19 L41,58 L26,58 L13,49 L12,41 L27.39,50.96 C28.4072732,51.6207121 29.6711111,51.7791524 30.82,51.39 L48.1,45.63 C49.2958938,45.2340834 50.2340834,44.2958938 50.63,43.1 L51.25,41.26 C51.6549337,40.0399407 51.4488197,38.6996115 50.6960257,37.657586 C49.9432316,36.6155605 48.7355017,35.9988322 47.45,36 L46.53,36 C46.6,35.92 46.67,35.85 46.74,35.78 C47.602296,34.910405 48.7135518,34.3303155 49.92,34.12 C49.9610375,34.1065116 49.988775,34.0681973 49.988775,34.025 C49.988775,33.9818027 49.9610375,33.9434884 49.92,33.93 C48.7111924,33.7203128 47.5988152,33.1361398 46.74,32.26 C45.8674936,31.3984876 45.2839703,30.2873473 45.07,29.08 C45.0565116,29.0389625 45.0181973,29.011225 44.975,29.011225 C44.9318027,29.011225 44.8934884,29.0389625 44.88,29.08 C44.4865487,31.2872758 42.8926092,33.089624 40.75,33.75 L35,28 C35.96,25.41 38.16,25.16 37.55,22.89 L40,18 L48.8,22.8 C50.1469282,23.530538 51.792422,23.4296351 53.04,22.54 L58,19 Z" id="Shape" fill="#2C3E50"/><path d="M28.1,6.373 L30.217,4.256 C30.9979997,3.47523612 32.2640003,3.47523612 33.045,4.256 L33.745,4.956 C34.5257639,5.7369997 34.5257639,7.0030003 33.745,7.784 L31.627,9.9 L23.682,17.85 L4.26,37.272 C3.2730951,38.17437 1.75083465,38.1403306 0.805252032,37.194748 C-0.140330581,36.2491654 -0.174370029,34.7269049 0.728,33.74 L20.15,14.318 L28.1,6.373 Z" id="Shape" fill="#CB8252"/><path d="M37.26,30.26 C37.16,30.54 37.05,30.81 36.92,31.09 C36.4113977,29.9297789 35.8094194,28.8127747 35.12,27.75 C32.5388864,23.8857522 29.5955969,20.2761208 26.33,16.97 L25.889,11.312 L30.74,12.55 C30.74,12.55 35.98,16.92 37.55,22.89 C38.2343776,25.3156105 38.1328558,27.8956646 37.26,30.26 Z" id="Shape" fill="#95A5A5"/><path d="M49.92,34.12 C48.7135518,34.3303155 47.602296,34.910405 46.74,35.78 C46.67,35.85 46.6,35.92 46.53,36 C45.7725261,36.8282801 45.2661718,37.8548614 45.07,38.96 C45.0565116,39.0010375 45.0181973,39.028775 44.975,39.028775 C44.9318027,39.028775 44.8934884,39.0010375 44.88,38.96 C44.6694946,37.7536162 44.0894336,36.642415 43.22,35.78 L43.14,35.7 L43.13,35.7 C42.2810429,34.8763678 41.2047528,34.3260318 40.04,34.12 C39.9989625,34.1065116 39.971225,34.0681973 39.971225,34.025 C39.971225,33.9818027 39.9989625,33.9434884 40.04,33.93 C40.2813111,33.8900906 40.5188215,33.8298767 40.75,33.75 C42.8926092,33.089624 44.4865487,31.2872758 44.88,29.08 C44.8934884,29.0389625 44.9318027,29.011225 44.975,29.011225 C45.0181973,29.011225 45.0565116,29.0389625 45.07,29.08 C45.2839703,30.2873473 45.8674936,31.3984876 46.74,32.26 C47.5988152,33.1361398 48.7111924,33.7203128 49.92,33.93 C49.9610375,33.9434884 49.988775,33.9818027 49.988775,34.025 C49.988775,34.0681973 49.9610375,34.1065116 49.92,34.12 Z" id="Shape" fill="#F9EAB0"/><path d="M38.92,40.12 C37.7135518,40.3303155 36.602296,40.910405 35.74,41.78 C34.8713051,42.6443307 34.2884541,43.7541907 34.07,44.96 C34.0565116,45.0010375 34.0181973,45.028775 33.975,45.028775 C33.9318027,45.028775 33.8934884,45.0010375 33.88,44.96 C33.6694946,43.7536162 33.0894336,42.642415 32.22,41.78 C31.3549265,40.9141793 30.2449395,40.3347521 29.04,40.12 C28.9989625,40.1065116 28.971225,40.0681973 28.971225,40.025 C28.971225,39.9818027 28.9989625,39.9434884 29.04,39.93 C31.5085662,39.4840596 33.4391556,37.5494814 33.88,35.08 C33.8934884,35.0389625 33.9318027,35.011225 33.975,35.011225 C34.0181973,35.011225 34.0565116,35.0389625 34.07,35.08 C34.2839703,36.2873473 34.8674936,37.3984876 35.74,38.26 C36.5988152,39.1361398 37.7111924,39.7203128 38.92,39.93 C38.9610375,39.9434884 38.988775,39.9818027 38.988775,40.025 C38.988775,40.0681973 38.9610375,40.1065116 38.92,40.12 Z" id="Shape" fill="#F3D55B"/><path d="M6.908,1.076 C13.088,3.724 21.033,11.67 21.033,11.67 L25.889,12.111 L25.447,7.256 C25.447,7.256 16.619,-3.338 6.908,1.076 Z" id="Shape" fill="#95A5A5"/><rect id="Rectangle-path" fill="#7F8C8D" transform="translate(25.889164, 12.110918) rotate(45.000000) translate(-25.889164, -12.110918) " x="22.1436637" y="6.49291769" width="7.491" height="11.236" rx="1"/></g></g></svg>
